<?xml version="1.0" encoding="utf-8"?>
<!-- Generator: Adobe Illustrator 22.0.0, SVG Export Plug-In . SVG Version: 6.00 Build 0)  -->
<svg version="1.1" id="Layer_1" xmlns="http://www.w3.org/2000/svg" xmlns:xlink="http://www.w3.org/1999/xlink" x="0px" y="0px"
	 viewBox="0 0 147 190" style="enable-background:new 0 0 147 190;" xml:space="preserve">
<style type="text/css">
	.st0{fill:#FFFFFF;}
	.greyish{fill:#898576;}
	.st2{fill:#B01842;}
</style>
<g>
	<path class="st0" d="M-0.3,0.3h147l-0.6,189.4H-0.3L-0.3,0.3z"/>
	<path d="M52.7,12C52.9,11.9,52.4,12.1,52.7,12z M52.7,12C52.7,12,52.6,12,52.7,12z"/>
	<path class="greyish" d="M73.3,135.3h0.2c7.1,0,13.9-1,20.4-3c7-2.4,13.6-7.3,17.6-13.3c6.6-9.6,12.6-28.3,12.9-46.8v-0.1
		c-0.3-18.5-6.3-37.2-12.9-46.8c-4-6-10.5-10.9-17.5-13.3c-6.5-2-13.5-3-20.7-3c-7.1,0-14.2,1-20.7,3c-7,2.4-13.5,7.3-17.5,13.3
		c-6.6,9.6-12.6,28.3-12.9,46.8v0.1c0.3,18.5,6.3,37.2,12.9,46.8c4,6,10.5,10.9,17.5,13.3c6.7,2,13.6,3,20.5,3H73.3L73.3,135.3z"/>
	<path class="st0" d="M120.4,72.2c0.2,14-4,30.9-8.2,39.9c-4.6,10.3-11.5,16.6-21.8,19.4c-5.5,1.4-11.3,2.1-17.2,2.1
		c-5.9,0-11.8-0.7-17.3-2.1c-10.2-2.8-17.2-9.1-21.8-19.4c-4.1-9-8.4-26-8.2-39.9c-0.2-14,4-30.9,8.2-39.9
		C38.7,22,45.6,15.7,55.9,12.9c5.5-1.4,11.3-2.1,17.3-2.1c5.9,0,11.7,0.7,17.2,2.1c10.2,2.8,17.2,9.1,21.8,19.4
		C116.4,41.3,120.7,58.2,120.4,72.2L120.4,72.2z"/>
	<path class="greyish" d="M73.4,25.7c4.9,0,9.8,0.7,14.3,1.9c4.8,1.4,8.7,4.7,10.7,9.2c4.3,9.2,7.1,22.5,7.1,35.5s-2.8,26.3-7.1,35.5
		c-2,4.5-5.9,7.8-10.7,9.2c-4.7,1.3-9.5,1.9-14.3,1.9h-0.2c-4.9,0-9.8-0.7-14.3-1.9c-4.8-1.4-8.8-4.7-10.7-9.2
		c-4.3-9.2-7.1-22.4-7.1-35.5c0-13,2.8-26.3,7.1-35.5c2-4.5,5.9-7.8,10.7-9.2c4.7-1.3,9.5-1.9,14.3-1.9L73.4,25.7L73.4,25.7z"/>
	<path class="st0" d="M80.3,43.4c-0.7-1.1-0.1-0.1-0.8-1.5L80.3,43.4z M65.8,69.7v4.7H49.6v-4.7H65.8L65.8,69.7z M62.1,110.2
		c-0.3-0.7-0.5-1-0.5-1.8c3.4,0,5.7,0,9.3,0c0,1.3-0.8,2.5-1.9,3.4c-1.3,0.9-3.4,1.1-4.8,0.3C63.3,111.8,62.6,111,62.1,110.2
		L62.1,110.2z"/>
	<path class="st0" d="M72.1,106.5h-5v-2.3h5l1.6-1.8c0.8,0.9,0.8,0.9,1.6,1.8h5v2.3h-5v5.7h-3.2V106.5L72.1,106.5L72.1,106.5z
		 M72.7,99.4c1-0.3,2.5-0.9,2.7-1.9c-0.1-1.5,1-2.7,1.8-4c0.4-0.5,0.4-0.8,0.3-1.4c1.6,0.1,3.2,1.4,3.8,2.9c0.6,1.5,0.4,3.5-0.6,4.7
		c-1.2,1.5-2.9,2.2-4.9,1.9C74.6,101.3,73.4,100.5,72.7,99.4z M60.7,78.8c-0.9-0.4-2.1-0.6-3.1-0.1c-0.8,0.2-1.6,1.2-1.7,2.1
		c-0.1,2.8,0,3.6,0,6.7c-0.1,0.5-0.3,0.7-0.9,0.7c-0.5,0-0.9-0.3-0.9-0.7v-6.8c0-0.7-0.2-1.4-0.7-2l-3.6,1.2L49.5,80
		c0.9,0.7,1.3,0.7,1.4,1.8v8.8l0.1,0.5l0.1,0.3l0.1,0.3l0.1,0.2c0.6,0.9,1.6,1.3,2.3,1.5c0.3,0.1,0.8,0.1,1.2,0.1
		c0.9,0,1.8-0.1,2.7-0.7c1.5-1.1,1.1-3.1,1.2-6c0-0.8,0.1-1.3,0.6-1.7c0.4-0.3,1-0.4,1.6-0.3c0.6,0.2,0.7,0.2,1.3,0.6
		C62.3,82.7,62.3,79.6,60.7,78.8L60.7,78.8z M93.8,89.8c-2.6-2.5-7.1-6.1-7.5-7.6c-0.4-1-0.3-2.2-0.3-3.4c0.7-0.6,1.4-1.1,2.3-1.8
		c-0.1,1.8-0.3,3.6,0.5,4.7c2.1,2.1,4,4,6,5.9c0.7,0.8,1.3,1.9,0.8,2.9c-0.2,0.5-0.5,1-0.9,1.5C94.8,90.9,94.3,90.4,93.8,89.8
		L93.8,89.8z M79.1,76.9c2,0,2.6,0,4.7,0v13.8h-4.7V76.9L79.1,76.9z"/>
	<path class="st0" d="M89.6,78.2c0.5-0.5,0.7-0.8,1.3-1.3l1.2,1.4v3.9c1.7-0.8,1.3-3.2,1.3-5.2c1,0.8,1.5,1.3,2.4,2.1
		c0.5,2.4-0.9,3.7-1.9,5.3l-4.2-4L89.6,78.2L89.6,78.2L89.6,78.2z M93.4,67.6L94,65l2.1-0.3v-6.5c-0.8,0.1-1.1,0.2-1.8,0.3v-5
		c-1.1,0.2-2.2,0.6-3.4,0.9v8.2c0,0.4-0.7,0.5-0.8,0.5h-0.2c-0.4,0-0.8-0.3-0.8-0.6v-7.9L85.8,55v3.3c-1.2,2.3-2.9,4.5-4.5,6.6
		c1.8,0.1,1.9,0.1,3.7,0.3l1.1,2.4L93.4,67.6L93.4,67.6z M56,66c-0.1-2.2-0.1-3.6-0.2-5.7c0.7-0.2,1.3,0.2,1.8,0.6
		c-0.1,2.7-0.1,2.7-0.1,5.5H56L56,66L56,66z M55.8,53.6c-0.4-2.2-0.4-2.3-0.6-3.9h-1.4v-1.5c2.4,0,3.7,0,6,0v1.5h-1.4l-0.6,5
		C57.2,54.2,56.5,53.8,55.8,53.6z M55.5,47.2c-2-2.1-2.2-5.4-1.8-8.3l0,0c0.4,1.1,1.1,1.9,2.1,2.4c-0.1-0.6-0.6-1.1-0.8-1.7
		c-0.5-1.2-0.4-2.9,0.3-3.9c0.5-0.8,1.3-1.1,2.2-1.4c-0.3,1-0.4,2.1,0,3.1c0.6-0.4,0.6-0.5,1-0.9c0.2-0.2,0.2-0.2,0.4-0.3
		c0.8,1.7,1.7,4,1.2,6l-0.3,0.9c-0.1-1.4-0.4-2.1-1.3-2.6c-0.1,0.8,0.4,1.4,0.5,2.5c0.4,1.6,0.1,3.3-0.9,4.2H55.5L55.5,47.2
		L55.5,47.2z M80.3,43.4l-2.1,2.3c-0.6-0.5-0.6-0.6-1.2-1.2c1.1-1.1,1.2-1.2,2.4-2.5L80.3,43.4L80.3,43.4z M83.1,37.9
		c0.4-2,0.6-4.2,2.8-5c0.8-0.2,1.9-0.1,2.6,0.5c0.9,0.7,1.2,1.8,1,2.9c-0.6,2.3-3.2,2.7-5.3,3.3L83.1,37.9z M97.4,69.7v4.7H81.2
		v-4.7H97.4L97.4,69.7z"/>
	<path class="st0" d="M58.4,101.1c-0.7-3,3-4,3.8-6.5c0.7-4.1,0.9-8.5,3.8-11.7c0.3-6.1,2.3-11.4,6.6-15.9c-0.2-1.4-0.8-2.6-1.2-3.8
		c-0.6,0-1-0.1-1.5-0.6c-0.4-0.5-0.5-0.9-0.6-1.6c-1.5,1.9-3.4,3.9-5.4,5.2c-0.4,0.2-0.9-0.2-1.5-0.9c-2.5-2-2.9-6.5-6.8-6.3
		c-1.7-0.6-1.7-2.6-1.9-4.2c0.7-0.5,1.7-0.4,2.5-0.1c2.4,1.3,4,4,6.3,5.8c0.6,0.5,1.2,1.1,1.7,1.3c1.5-1.3,2.7-2.4,3.7-4.3
		c0.7-1.1,1.9-1.6,3.1-1.6l0.9-1.1l-0.5-2.7c-0.9-1.2-1.7-2.4-2.3-3.8c0.3-1.5,0.5-3.3,2.1-4.2c1-0.6,1.8,0.8,2.7-0.1
		c0.6-0.1,1.1,0,1.6,0.4c0.6,1.1,1.4,2.2,1.4,3.5c-0.4,1.2-1,2.4-1.6,3.5c-0.1,0.3-0.5,0.3-0.7,0.5c0.1,0.5,0.3,1.1,0.6,1.5
		c0.5,0.1,0.9,0.2,1.5,0.1c0.5-1.4,1.9-2,3.1-2.3l2.7-1.7c-0.4-2,0.9-3.8,0.1-5.8c-1.5-0.7-2-2.4-2.3-3.8c0.2-0.9,0.7-1.7,1.3-2.5
		l0.1,0.1c1.5,1.7,2.8,3.4,3.3,5.5c0.3,2.7,0.5,5.4,0.3,8.3c-1.4,1.4-3.2,2.3-4.8,3.4L79.3,57c-0.1,2.4-0.9,4.6-1.2,6.9
		c1,2.8,2.3,6.6,1.4,9.2c-0.7,1.6-2.2,2.4-3.2,3.3l-2.8,2.2c2.8,3,2.1,6.5,2.2,10.8c0,1.1,1.9,1.9,0.9,3.1c-0.9,1.4-2.2,2.4-2,4.2
		c-0.8,1.4-2.9,1.7-3.8,1.7c-0.2,0-0.4-0.1-0.4-0.3l0,0c0.2-0.7,0.8-1.3,1.1-2c1-1.5,0.5-3.6,1.8-5c-1-3.3-2.5-6.3-2.9-9.8v-0.2
		c-0.8,1.6-0.4,3.2,0.1,4.4c-3.2,3.7-6.1,6.9-6.1,11.4c-1.2,2-2.8,3.9-3.7,6.1c-0.3,0.4-0.8,0-1.2-0.1
		C58.8,102.3,58.6,101.8,58.4,101.1L58.4,101.1z M88.1,86.5c2.6,2.5,7.1,6.1,7.5,7.6c0.4,1,0.3,2.2,0.3,3.4
		c-0.8,0.6-1.4,1.1-2.3,1.8c0.1-1.8,0.3-3.6-0.5-4.7c-2-2-4-3.9-6-5.9c-0.7-0.8-1.3-1.9-0.8-2.9c0.2-0.5,0.5-1,0.9-1.5
		C87.1,85.4,87.5,85.9,88.1,86.5L88.1,86.5z"/>
	<path class="st0" d="M92.3,98.1c-0.5,0.5-0.7,0.8-1.3,1.3L89.8,98v-3.9c-1.7,0.8-1.3,3.2-1.3,5.2c-1-0.8-1.5-1.3-2.4-2.1
		c-0.5-2.4,0.9-3.7,2-5.3l4.2,4L92.3,98.1L92.3,98.1L92.3,98.1z M85.3,110.2c0.3-0.7,0.5-1,0.5-1.8c-3.4,0-5.7,0-9.3,0
		c0,1.3,0.8,2.5,1.9,3.4c1.3,0.9,3.4,1.1,4.8,0.3C84.1,111.8,84.8,111,85.3,110.2z"/>
	<path class="greyish" d="M75,130.3c0-2.6,2.5-3.9,4.1-5.5c0.4-0.4,0.6-1.2,0.3-1.9c-0.2-0.4-0.5-0.6-0.8-0.7c-0.6-0.1-1,0-1.4,0.3
		c-0.5,0.5-0.6,1-0.6,1.7l-1.8,0.1c-0.2-1,0.1-1.9,0.7-2.6c0.8-0.9,2-1.1,3.2-1c1,0.2,2.1,0.7,2.5,1.7c0.5,1.1,0.3,2.5-0.5,3.4
		c-1,1.1-2.4,1.7-3.3,2.9l4.4-0.3c0,0.5,0.1,1.1,0.1,1.6L75,130.3L75,130.3z M59.2,119.3L59.2,119.3l-2.9,8.9l-1.8-0.6l2-6v-0.1
		c-0.7-0.3-1.6-0.5-2.3-0.8l0.4-1.1c0.9,0.2,1.9,0.4,2.7-0.3c0.3-0.2,0.3-0.3,0.5-0.5L59.2,119.3L59.2,119.3z M94.3,124.2
		c-0.2-0.9-0.7-1.6-1.7-1.8l-0.6-0.1c0.6-0.4,1.1-1.2,0.9-2c-0.1-0.9-0.8-1.5-1.6-1.8c-0.7-0.2-1.6-0.2-2.4,0s-1.6,0.5-2.1,1.1
		c-0.6,0.7-0.9,1.5-0.6,2.3c0.2,0.8,1.1,1.3,1.8,1.4l-0.4,0.4c-0.7,0.7-0.8,1.5-0.6,2.4c0.2,1,1,1.7,2,2c0.7,0.2,1.6,0.2,2.4,0
		c0.8-0.2,1.6-0.6,2.2-1.1C94.3,126.2,94.6,125.1,94.3,124.2L94.3,124.2z M88.2,121.6c-0.2-0.4-0.2-1,0.2-1.4
		c0.2-0.2,0.6-0.4,0.9-0.5c0.4-0.1,0.7-0.1,1,0c0.5,0.2,0.8,0.7,0.8,1.2c0,0.3-0.1,0.6-0.4,0.8c-0.3,0.2-0.6,0.4-0.9,0.4
		c-0.3,0.1-0.7,0.1-1,0C88.7,122.1,88.4,121.9,88.2,121.6L88.2,121.6z M92.1,125.9c-0.2,0.3-0.7,0.5-1.1,0.6c-0.5,0.1-0.9,0.1-1.3,0
		c-0.4-0.2-0.8-0.5-0.9-0.9c-0.2-0.6,0-1.2,0.5-1.6c0.2-0.2,0.5-0.3,0.9-0.4c0.3-0.1,0.7-0.1,1-0.1c0.6,0.1,1.1,0.6,1.2,1.2
		C92.6,125.1,92.4,125.5,92.1,125.9L92.1,125.9z M70.4,127.5c0-0.9-0.2-1.7-1.1-2.3l-0.5-0.3c0.7-0.2,1.4-0.8,1.5-1.7
		c0.1-0.9-0.3-1.7-1-2.2c-0.6-0.4-1.4-0.6-2.3-0.7c-0.8-0.1-1.7,0.1-2.3,0.4c-0.8,0.5-1.3,1.1-1.3,2.1c0,0.8,0.6,1.5,1.3,1.8
		l-0.5,0.2c-0.9,0.4-1.3,1.2-1.3,2.1c-0.1,1,0.4,2,1.3,2.5c0.6,0.4,1.5,0.6,2.3,0.7c0.9,0.1,1.7-0.1,2.4-0.4
		C69.7,129.4,70.3,128.5,70.4,127.5z M65.3,123.3c-0.1-0.4,0.1-1.1,0.6-1.3c0.3-0.2,0.7-0.2,1-0.2c0.4,0,0.7,0.1,1,0.3
		c0.5,0.3,0.6,0.9,0.4,1.4c-0.1,0.3-0.3,0.5-0.6,0.7c-0.3,0.1-0.6,0.2-1,0.1c-0.3,0-0.7-0.1-0.9-0.3
		C65.6,123.8,65.4,123.6,65.3,123.3L65.3,123.3z M67.7,128.5c-0.3,0.2-0.8,0.3-1.2,0.2c-0.5,0-0.9-0.2-1.2-0.4
		c-0.4-0.3-0.6-0.7-0.6-1.2c0-0.6,0.4-1.2,1-1.4c0.3-0.1,0.6-0.1,1-0.1s0.7,0.1,1,0.2c0.6,0.3,0.9,0.9,0.8,1.5
		C68.4,127.9,68.1,128.2,67.7,128.5L67.7,128.5z M112.1,37.9l-8.6,3.7l-0.8-1.8l8.6-3.7L112.1,37.9z M79.6,23.1l-2.2-9.7l2,0.2
		c0.4,2.4,0.8,5.1,1.3,7.1c0.9-1.9,1.8-4.4,2.7-6.7l2,0.2l-4.1,9L79.6,23.1L79.6,23.1z M42.9,28.6l-2.1,3.7l-1.8-1l2.4-4.3L40,26.2
		l-3.4,6l8.2,4.6l3.4-6L46.8,30l-2.3,4.4l-2.3-1.3l2.1-3.7L42.9,28.6z M37.9,68.3c-0.4-1-1.5-1.4-2.7-1.3c-1,0.1-1.7,0.7-2.1,1.7
		c-0.1-0.6-0.7-1.3-1.6-1.4c-0.9-0.1-1.8,0.1-2.3,0.9c-0.6,0.8-0.3,4.3-0.4,6.3h9.3v-0.7C38.2,70.1,38.4,69.7,37.9,68.3z M32.6,72.6
		h-2.3c0.1-2.1-0.3-3.3,1-3.4c0.8-0.1,1,0.1,1.2,0.6C32.7,70.2,32.6,70.7,32.6,72.6z M36.7,72.6h-2.6l0,0c0-2.1-0.3-3.3,1-3.5
		c0.4-0.1,1-0.1,1.3,0.3C36.8,69.8,36.7,70.6,36.7,72.6z M112.2,43.1l1.5-0.4l1.9,7.3l-1.5,0.4l-0.7-2.7l-7.5,1.9l-0.5-1.9l7.5-1.9
		L112.2,43.1z M64.8,23.6c-1,0.2-2.1,0.1-3-0.5c-0.7-0.4-1-1-1.2-1.7l-1.1-6.7l1.9-0.3l1.1,6.7c0.1,0.5,0.6,0.9,1.1,1
		c0.3,0.1,0.6,0.1,0.9,0L64.8,23.6L64.8,23.6z M64.8,23.6c1-0.2,2-0.6,2.7-1.4c0.6-0.6,0.7-1.3,0.6-1.9L67,13.6l-1.9,0.3l1.1,6.7
		c0.1,0.5-0.3,1-0.7,1.3c-0.3,0.2-0.5,0.3-0.8,0.3L64.8,23.6L64.8,23.6z M116.5,56.4l-9.8-1.9l0.3,1.9l2.1,0.4l0.5,3.3l-1.9,1
		L108,63l8.8-4.5L116.5,56.4L116.5,56.4z M111.1,59.3l-0.3-2.3l4,0.6l0,0l0,0l0,0l0,0L111.1,59.3L111.1,59.3z M115.1,72.4h0.2
		l0.2-0.1l0.1-0.1c0.6-0.3,0.8-1.2,0.7-1.8c0-0.7-0.2-1.4-0.9-1.6c-0.3-0.1-0.8-0.1-1,0.2c-1.1,1.6-0.3,4.9-3.1,5.5
		c-1.2,0.2-2.2-0.3-2.9-1.3c-0.8-1.5-0.9-3.9,0.1-5.3c0.6-0.8,1.4-1.2,2.3-1.2l0.1,1.8c-0.6,0.1-1.2,0.4-1.4,0.9
		c-0.4,0.9-0.3,2.4,0.4,3c0.3,0.3,0.8,0.2,1.2,0.1c1.1-0.8,0.9-2.7,1.4-4c0.2-0.5,0.7-1.1,1.2-1.4c1-0.4,2.2-0.3,3,0.5
		c1.3,1.2,1.3,3.5,0.7,4.9c-0.3,1-1.4,1.7-2.5,1.7l-0.1-1.8L115.1,72.4L115.1,72.4z M39.5,58.3c-0.2,1-0.6,2-1.4,2.7
		c-0.6,0.6-1.3,0.7-2,0.6l-6.7-1l0.3-1.9l6.7,1c0.6,0.1,1-0.3,1.3-0.7c0.2-0.2,0.3-0.5,0.3-0.8L39.5,58.3z M39.5,58.3
		c0.2-1,0.1-2.1-0.5-3c-0.4-0.7-1-1-1.7-1.1l-6.7-1l-0.3,1.9l6.7,1.1c0.5,0.1,0.9,0.6,1,1.1c0.1,0.3,0.1,0.6,0,0.9L39.5,58.3
		L39.5,58.3z M49.9,18.3l-1.7,1l2.1,9.7l1.6-1l-0.5-2l2.9-1.8l1.7,1.4l1.6-1L49.9,18.3L49.9,18.3z M51.1,24.4l-1-3.9l0,0l0,0l0,0
		l0,0l3,2.7L51.1,24.4z M95.5,21.4l-4-1.7l0.8-1.9l4.5,1.9l0.6-1.4L91,15.6l-3.6,8.6l6.4,2.7l0.6-1.4l-4.6-1.9l1-2.4l4,1.7
		L95.5,21.4L95.5,21.4z M38.3,42.1c0-0.6,0-1.2-0.6-1.7c-0.5-0.5-1.3-0.8-2.1-0.7c-2.1,0.3-2.4,2.7-3.5,6.5l9,2.7l0.6-1.9l-3.6-1.1
		H38c0.2-0.9,0.6-2,0.8-2.2c0.6-1.5,3,0,4-0.2l0.6-1.9C41.6,41.8,39.5,40.3,38.3,42.1L38.3,42.1z M36.5,45.5l-2.4-0.7
		c0.5-1.6,0.7-3.2,1.9-3.1c0.5,0.1,0.8,0.2,1,0.5C37.5,42.7,36.9,43.9,36.5,45.5z M104,23.5l-7.5,5.7l1.2,1.5l2.9-2.2l0.1-0.1
		c0.5,0.7,1.2,1.6,1.3,1.9c0.8,1.4-1.8,2.5-2.2,3.3l1.2,1.5c0.9-1.3,3.3-2.2,2.5-4.2c0.5,0.4,1,0.7,1.7,0.5c0.7-0.1,1.4-0.6,1.8-1.3
		C108.2,28.3,106.4,26.6,104,23.5L104,23.5z M105.4,29.3c-0.3,0.3-0.6,0.5-1,0.5c-0.7,0-1.3-1.1-2.3-2.4l1.9-1.5
		C105,27.3,106.1,28.4,105.4,29.3L105.4,29.3z M-0.3,164.9h146.4v-21.4H-0.3L-0.3,164.9z"/>
	<path class="st2" d="M-0.3,189.7h146.4v-21.4H-0.3L-0.3,189.7z"/>
	<path class="st0" d="M40.4,159.2c0.5,0,0.9-0.1,1.3-0.2c0.7-0.3,1.4-1,1.4-1.7v-10.1H46v10.1c0,1-0.3,1.9-1.3,2.7
		c-1.1,1-2.7,1.4-4.3,1.4l0,0c-1.6,0-3.1-0.4-4.3-1.4c-1-0.8-1.3-1.7-1.3-2.7v-10.1h2.9v10.1c0,0.8,0.7,1.4,1.4,1.7
		C39.5,159.2,39.9,159.3,40.4,159.2L40.4,159.2z M89.3,152.4h-6.4v-3h7.3v-2.3H79.9V161h10.3v-2.3h-7.4v-3.9h6.4L89.3,152.4
		L89.3,152.4z M127,159.2c0.5,0,0.9-0.1,1.3-0.2c0.7-0.3,1.4-1,1.4-1.7v-10.1h2.9v10.1c0,1-0.3,1.9-1.3,2.7c-1.1,1-2.7,1.4-4.3,1.4
		l0,0c-1.6,0-3.1-0.4-4.3-1.4c-1-0.8-1.3-1.7-1.3-2.7v-10.1h2.9v10.1c0,0.8,0.7,1.4,1.4,1.7C126,159.2,126.5,159.2,127,159.2z
		 M13.3,147.2c2.8,0,4.4,0,6.7,0c2.2,0,3.9,1.2,4,3.3c0.1,1.5-0.3,2.8-2.1,3.2c1.6,0.4,2.6,1.9,2.6,3.7c0,1.6-1.2,3.7-4.7,3.7h-6.6
		L13.3,147.2z"/>
	<path class="greyish" d="M16.2,154.8c1,0,2.3,0,3.7,0.1c1.1,0.1,1.7,1,1.7,1.9s-0.5,1.7-1.5,1.9c-1,0.1-1.1,0.1-4,0.1L16.2,154.8
		L16.2,154.8L16.2,154.8z M16.2,149.3h3.4c0.9,0,1.7,0.5,1.7,1.5c0,1.1-0.6,1.8-1.6,1.8h-3.5L16.2,149.3L16.2,149.3z"/>
	<path class="st0" d="M107.5,147.1h-3L99.6,161h2.9l1-3h5l1,3h2.9L107.5,147.1z M104.3,155.7l1.7-5.8l0,0l0,0l0,0l0,0l1.7,5.8H104.3
		L104.3,155.7z M66.2,154.3c1.4-0.5,3-1.1,2.8-3.8c-0.1-2.3-2.3-3.2-4.5-3.3c-2.4,0-3.9,0-6.6,0v13.9h2.9v-5.7c1.3,0,2.2-0.1,3.5,0
		c2.4,0.1,1.4,5.7,2.1,5.7h2.7C68.3,158.9,69.5,155,66.2,154.3L66.2,154.3z M64.8,153c-0.8,0.1-1.2,0.1-3.9,0.1v-3.6
		c1.4,0,2.9-0.1,3.7,0c0.8,0.1,1.6,0.6,1.6,1.7C66.1,152.1,65.6,152.9,64.8,153z M17,185.8l-4.7-13.9h3.1c1,3.5,2,7.4,3,10.3
		c1-2.9,2.1-6.8,3-10.3h3l-4.7,13.9H17L17,185.8z M42.1,177.2h-6.4v-3H43v-2.3H32.7v13.9H43v-2.3h-7.3v-3.9h6.4V177.2L42.1,177.2z
		 M74.4,171.9h2.9v13.9h-2.9V171.9z M85.4,174.3V172h11.3v2.3h-4.2v11.5h-2.9v-11.5H85.4L85.4,174.3z M110.2,171.9h-3l-4.9,13.9h2.9
		l1-3h5l1,3h2.9L110.2,171.9z M107,180.5l1.7-5.8l0,0l0,0l0,0l0,0l1.7,5.8H107L107,180.5z M61.1,179c1.4-0.5,3-1.1,2.8-3.8
		c-0.1-2.3-2.3-3.2-4.5-3.3c-2.4,0-3.9,0-6.6,0v13.9h2.9v-5.7c1.3,0,2.2-0.1,3.5,0c2.4,0.2,1.4,5.7,2.1,5.7h2.8
		C63.2,183.6,64.4,179.7,61.1,179L61.1,179z M59.7,177.7c-0.8,0.1-1.2,0.1-3.9,0.1v-3.6c1.4,0,2.9-0.1,3.7,0
		c0.8,0.1,1.6,0.6,1.6,1.6C61.1,176.9,60.5,177.6,59.7,177.7L59.7,177.7z M121.8,181.5c0,2,1.6,4.7,5.9,4.7c3.4,0,5.9-1.6,5.9-4.7
		c0-4.7-8.5-3.4-8.5-5.9c0-1,0.8-1.9,2.8-1.9c1.9,0,2.6,1,2.6,2.2l2.7-0.1c0-0.9-0.5-4.4-5.6-4.4c-3.7,0-5.4,2.1-5.4,4.6
		c0,4.7,8.4,3,8.4,5.9c0,1.6-1.7,1.9-3.2,1.9c-1.9,0-3-1.4-3-2.5L121.8,181.5z"/>
</g>
</svg>
