<?xml version="1.0" encoding="utf-8"?>
<!-- Generator: Adobe Illustrator 22.0.0, SVG Export Plug-In . SVG Version: 6.00 Build 0)  -->
<svg version="1.1" id="Layer_1" xmlns="http://www.w3.org/2000/svg" xmlns:xlink="http://www.w3.org/1999/xlink" x="0px" y="0px"
	 viewBox="0 0 160 190" style="enable-background:new 0 0 160 190;" xml:space="preserve">
<style type="text/css">
	.st0{fill:#FFFFFF;}
	.st1{fill:#15548B;}
</style>
<g>
	<path class="st0" d="M0,0h160v190H0V0z"/>
	<path class="st1" d="M19.3,158.3h-4.6L10,179.4h4.6L19.3,158.3z M35,173.1L35,173.1l-5.5-14.8h-4.8L20,179.4h4.3l3.3-15.1h0.1
		l5.6,15.1h4.6l4.7-21.2h-4.3L35,173.1z M69.3,158.3h-6.7L55,174.9h-0.1l-0.3-16.7h-6.7l-4.7,21.2h4.3l3.9-17.7h0.1l0.1,17.7h4.5
		l8-17.7h0.1l-3.9,17.7h4.3L69.3,158.3L69.3,158.3z M91.9,158.3H75.7L71,179.4h16.7l0.8-3.8H76.4l1.2-5.5h10.7l0.8-3.8H78.4l1-4.5
		h11.7L91.9,158.3L91.9,158.3z M103.9,162.1h6.7l0.8-3.8H93.5l-0.8,3.8h6.7l-3.9,17.5h4.6L103.9,162.1L103.9,162.1z M108.5,179.6
		h4.5l1.8-8.3h4.7c3.4,0,3.3,1.1,2.7,4c-0.5,2.2-0.5,3.3-0.5,4.3h5.1l0.1-0.6c-0.9-0.4-0.7-1.1,0-4.2c0.9-4,0-4.6-1.6-5.4
		c2.3-0.7,4-2.7,4.5-5.1c0.4-1.8,0.3-6-5.6-6h-11.1L108.5,179.6z M115.6,167.6l1.3-5.7h5.7c2.7,0,2.9,1.7,2.6,2.8
		c-0.5,2.1-1.8,2.9-4.2,2.9H115.6L115.6,167.6L115.6,167.6z M131.9,168.9c-2.2,10,5.2,11.2,8.1,11.2c2.9,0,10.8-1.2,13-11.2
		s-5.2-11.2-8.1-11.2C142,157.8,134.1,158.9,131.9,168.9z M136.5,168.9c1.3-5.9,5.1-7.4,7.6-7.4s5.6,1.5,4.3,7.4s-5.1,7.4-7.6,7.4
		S135.2,174.9,136.5,168.9z M110.4,131.8h41.3v19.3H8.5v-19.5h41.3V73.3L110.4,131.8L110.4,131.8z M8.5,9.9h143.2v17.5h-41.3v57.8
		L49.7,27.3H8.5V9.9z"/>
</g>
</svg>
