<svg id="Layer_1" data-name="Layer 1" xmlns="http://www.w3.org/2000/svg" viewBox="0 0 139.67 76.01"><defs><style>.cls-1,.cls-2{fill:none;stroke:#d93032;stroke-width:3.5px;}.cls-1{stroke-miterlimit:10;}.cls-2{stroke-linejoin:bevel;}</style></defs><title>logo_mech</title><polygon class="cls-1" points="69.95 1.14 137.58 38.42 69.8 74.87 2.09 37.82 69.95 1.14"/><path class="cls-2" d="M14.87,44.42C27,27.32,35.51,34,43.19,44c3.24,4.22,6,9.27,9.79,12.5,13.11,11,33.06,2.19,30.43-12.95-1.06-6.33-6.78-13.93-13.94-13m.91-.83C73.24,53.53,52.91,49.16,51,36.21,49.52,27,54.34,14.67,68.5,14.37c24.47-.6,26.13,34.87,46.84,25,4.59-2.18,7.61-6.55,5.27-9.71" transform="translate(-0.13 -0.65)"/></svg>